<mxfile host="app.diagrams.net" modified="2023-11-14T21:46:09.264Z" agent="Mozilla/5.0 (Windows NT 10.0; Win64; x64) AppleWebKit/537.36 (KHTML, like Gecko) Chrome/117.0.0.0 Safari/537.36" etag="OCztludHliOC943muZzD" version="22.1.0" type="google">
  <diagram name="Page-1" id="3KOmqLOMFEa8Lh8WFZH8">
    <mxGraphModel dx="1900" dy="574" grid="1" gridSize="10" guides="1" tooltips="1" connect="1" arrows="1" fold="1" page="1" pageScale="1" pageWidth="850" pageHeight="1100" math="0" shadow="0">
      <root>
        <mxCell id="0" />
        <mxCell id="1" parent="0" />
        <mxCell id="G63OA3zGbdWGWwNHvBTS-40" value="Song" style="swimlane;fontStyle=0;childLayout=stackLayout;horizontal=1;startSize=26;fillColor=none;horizontalStack=0;resizeParent=1;resizeParentMax=0;resizeLast=0;collapsible=1;marginBottom=0;whiteSpace=wrap;html=1;" parent="1" vertex="1">
          <mxGeometry x="-340" y="963" width="140" height="170" as="geometry">
            <mxRectangle x="-371" y="963" width="70" height="30" as="alternateBounds" />
          </mxGeometry>
        </mxCell>
        <mxCell id="G63OA3zGbdWGWwNHvBTS-41" value="Composer : String" style="text;strokeColor=default;fillColor=none;align=left;verticalAlign=top;spacingLeft=4;spacingRight=4;overflow=hidden;rotatable=0;points=[[0,0.5],[1,0.5]];portConstraint=eastwest;whiteSpace=wrap;html=1;" parent="G63OA3zGbdWGWwNHvBTS-40" vertex="1">
          <mxGeometry y="26" width="140" height="26" as="geometry" />
        </mxCell>
        <mxCell id="G63OA3zGbdWGWwNHvBTS-42" value="Singer : String" style="text;strokeColor=none;fillColor=none;align=left;verticalAlign=top;spacingLeft=4;spacingRight=4;overflow=hidden;rotatable=0;points=[[0,0.5],[1,0.5]];portConstraint=eastwest;whiteSpace=wrap;html=1;" parent="G63OA3zGbdWGWwNHvBTS-40" vertex="1">
          <mxGeometry y="52" width="140" height="26" as="geometry" />
        </mxCell>
        <mxCell id="G63OA3zGbdWGWwNHvBTS-43" value="Genre : String" style="text;strokeColor=none;fillColor=none;align=left;verticalAlign=top;spacingLeft=4;spacingRight=4;overflow=hidden;rotatable=0;points=[[0,0.5],[1,0.5]];portConstraint=eastwest;whiteSpace=wrap;html=1;" parent="G63OA3zGbdWGWwNHvBTS-40" vertex="1">
          <mxGeometry y="78" width="140" height="32" as="geometry" />
        </mxCell>
        <mxCell id="G63OA3zGbdWGWwNHvBTS-44" value="Language : String" style="text;strokeColor=none;fillColor=none;align=left;verticalAlign=top;spacingLeft=4;spacingRight=4;overflow=hidden;rotatable=0;points=[[0,0.5],[1,0.5]];portConstraint=eastwest;whiteSpace=wrap;html=1;" parent="G63OA3zGbdWGWwNHvBTS-40" vertex="1">
          <mxGeometry y="110" width="140" height="60" as="geometry" />
        </mxCell>
        <mxCell id="G63OA3zGbdWGWwNHvBTS-46" value="Title : String" style="text;strokeColor=none;fillColor=none;align=left;verticalAlign=top;spacingLeft=4;spacingRight=4;overflow=hidden;rotatable=0;points=[[0,0.5],[1,0.5]];portConstraint=eastwest;whiteSpace=wrap;html=1;" parent="1" vertex="1">
          <mxGeometry x="-338" y="1101" width="140" height="26" as="geometry" />
        </mxCell>
        <mxCell id="G63OA3zGbdWGWwNHvBTS-53" value="User" style="swimlane;fontStyle=0;childLayout=stackLayout;horizontal=1;startSize=26;fillColor=none;horizontalStack=0;resizeParent=1;resizeParentMax=0;resizeLast=0;collapsible=1;marginBottom=0;whiteSpace=wrap;html=1;" parent="1" vertex="1">
          <mxGeometry y="1310" width="140" height="104" as="geometry" />
        </mxCell>
        <mxCell id="G63OA3zGbdWGWwNHvBTS-54" value="UserID : String" style="text;strokeColor=none;fillColor=none;align=left;verticalAlign=top;spacingLeft=4;spacingRight=4;overflow=hidden;rotatable=0;points=[[0,0.5],[1,0.5]];portConstraint=eastwest;whiteSpace=wrap;html=1;" parent="G63OA3zGbdWGWwNHvBTS-53" vertex="1">
          <mxGeometry y="26" width="140" height="26" as="geometry" />
        </mxCell>
        <mxCell id="G63OA3zGbdWGWwNHvBTS-55" value="UserName : String" style="text;strokeColor=none;fillColor=none;align=left;verticalAlign=top;spacingLeft=4;spacingRight=4;overflow=hidden;rotatable=0;points=[[0,0.5],[1,0.5]];portConstraint=eastwest;whiteSpace=wrap;html=1;" parent="G63OA3zGbdWGWwNHvBTS-53" vertex="1">
          <mxGeometry y="52" width="140" height="26" as="geometry" />
        </mxCell>
        <mxCell id="G63OA3zGbdWGWwNHvBTS-56" value="Password : String" style="text;strokeColor=none;fillColor=none;align=left;verticalAlign=top;spacingLeft=4;spacingRight=4;overflow=hidden;rotatable=0;points=[[0,0.5],[1,0.5]];portConstraint=eastwest;whiteSpace=wrap;html=1;" parent="G63OA3zGbdWGWwNHvBTS-53" vertex="1">
          <mxGeometry y="78" width="140" height="26" as="geometry" />
        </mxCell>
        <mxCell id="G63OA3zGbdWGWwNHvBTS-61" value="Playlist" style="swimlane;fontStyle=0;childLayout=stackLayout;horizontal=1;startSize=26;fillColor=none;horizontalStack=0;resizeParent=1;resizeParentMax=0;resizeLast=0;collapsible=1;marginBottom=0;whiteSpace=wrap;html=1;" parent="1" vertex="1">
          <mxGeometry x="120" y="963" width="140" height="138" as="geometry" />
        </mxCell>
        <mxCell id="G63OA3zGbdWGWwNHvBTS-62" value="playListID : String" style="text;strokeColor=none;fillColor=none;align=left;verticalAlign=top;spacingLeft=4;spacingRight=4;overflow=hidden;rotatable=0;points=[[0,0.5],[1,0.5]];portConstraint=eastwest;whiteSpace=wrap;html=1;" parent="G63OA3zGbdWGWwNHvBTS-61" vertex="1">
          <mxGeometry y="26" width="140" height="26" as="geometry" />
        </mxCell>
        <mxCell id="G63OA3zGbdWGWwNHvBTS-63" value="UserID : String" style="text;strokeColor=none;fillColor=none;align=left;verticalAlign=top;spacingLeft=4;spacingRight=4;overflow=hidden;rotatable=0;points=[[0,0.5],[1,0.5]];portConstraint=eastwest;whiteSpace=wrap;html=1;" parent="G63OA3zGbdWGWwNHvBTS-61" vertex="1">
          <mxGeometry y="52" width="140" height="26" as="geometry" />
        </mxCell>
        <mxCell id="G63OA3zGbdWGWwNHvBTS-64" value="Title : String" style="text;strokeColor=none;fillColor=none;align=left;verticalAlign=top;spacingLeft=4;spacingRight=4;overflow=hidden;rotatable=0;points=[[0,0.5],[1,0.5]];portConstraint=eastwest;whiteSpace=wrap;html=1;" parent="G63OA3zGbdWGWwNHvBTS-61" vertex="1">
          <mxGeometry y="78" width="140" height="30" as="geometry" />
        </mxCell>
        <mxCell id="G63OA3zGbdWGWwNHvBTS-74" value="Song : List" style="text;strokeColor=none;fillColor=none;align=left;verticalAlign=top;spacingLeft=4;spacingRight=4;overflow=hidden;rotatable=0;points=[[0,0.5],[1,0.5]];portConstraint=eastwest;whiteSpace=wrap;html=1;" parent="G63OA3zGbdWGWwNHvBTS-61" vertex="1">
          <mxGeometry y="108" width="140" height="30" as="geometry" />
        </mxCell>
        <mxCell id="G63OA3zGbdWGWwNHvBTS-65" value="FriendShip" style="swimlane;fontStyle=0;childLayout=stackLayout;horizontal=1;startSize=26;fillColor=none;horizontalStack=0;resizeParent=1;resizeParentMax=0;resizeLast=0;collapsible=1;marginBottom=0;whiteSpace=wrap;html=1;" parent="1" vertex="1">
          <mxGeometry x="-340" y="1310" width="140" height="140" as="geometry">
            <mxRectangle x="-340" y="1310" width="100" height="30" as="alternateBounds" />
          </mxGeometry>
        </mxCell>
        <mxCell id="G63OA3zGbdWGWwNHvBTS-66" value="friendShipID : String" style="text;strokeColor=none;fillColor=none;align=left;verticalAlign=top;spacingLeft=4;spacingRight=4;overflow=hidden;rotatable=0;points=[[0,0.5],[1,0.5]];portConstraint=eastwest;whiteSpace=wrap;html=1;" parent="G63OA3zGbdWGWwNHvBTS-65" vertex="1">
          <mxGeometry y="26" width="140" height="26" as="geometry" />
        </mxCell>
        <mxCell id="G63OA3zGbdWGWwNHvBTS-67" value="User1ID : String" style="text;strokeColor=none;fillColor=none;align=left;verticalAlign=top;spacingLeft=4;spacingRight=4;overflow=hidden;rotatable=0;points=[[0,0.5],[1,0.5]];portConstraint=eastwest;whiteSpace=wrap;html=1;" parent="G63OA3zGbdWGWwNHvBTS-65" vertex="1">
          <mxGeometry y="52" width="140" height="26" as="geometry" />
        </mxCell>
        <mxCell id="G63OA3zGbdWGWwNHvBTS-68" value="User2ID : String" style="text;strokeColor=none;fillColor=none;align=left;verticalAlign=top;spacingLeft=4;spacingRight=4;overflow=hidden;rotatable=0;points=[[0,0.5],[1,0.5]];portConstraint=eastwest;whiteSpace=wrap;html=1;" parent="G63OA3zGbdWGWwNHvBTS-65" vertex="1">
          <mxGeometry y="78" width="140" height="62" as="geometry" />
        </mxCell>
        <mxCell id="G63OA3zGbdWGWwNHvBTS-69" value="Status : String" style="text;strokeColor=none;fillColor=none;align=left;verticalAlign=top;spacingLeft=4;spacingRight=4;overflow=hidden;rotatable=0;points=[[0,0.5],[1,0.5]];portConstraint=eastwest;whiteSpace=wrap;html=1;" parent="1" vertex="1">
          <mxGeometry x="-339" y="1413" width="140" height="26" as="geometry" />
        </mxCell>
        <mxCell id="G63OA3zGbdWGWwNHvBTS-75" value="ActivityLogger" style="swimlane;fontStyle=0;childLayout=stackLayout;horizontal=1;startSize=26;fillColor=none;horizontalStack=0;resizeParent=1;resizeParentMax=0;resizeLast=0;collapsible=1;marginBottom=0;whiteSpace=wrap;html=1;" parent="1" vertex="1">
          <mxGeometry x="360" y="1240" width="140" height="52" as="geometry" />
        </mxCell>
        <mxCell id="G63OA3zGbdWGWwNHvBTS-76" value="logActivity()" style="text;strokeColor=none;fillColor=none;align=left;verticalAlign=top;spacingLeft=4;spacingRight=4;overflow=hidden;rotatable=0;points=[[0,0.5],[1,0.5]];portConstraint=eastwest;whiteSpace=wrap;html=1;" parent="G63OA3zGbdWGWwNHvBTS-75" vertex="1">
          <mxGeometry y="26" width="140" height="26" as="geometry" />
        </mxCell>
        <mxCell id="G63OA3zGbdWGWwNHvBTS-79" value="registerUser()&lt;br&gt;logInUser()&lt;br&gt;logOutUser()&lt;br&gt;followUser()" style="html=1;whiteSpace=wrap;align=left;" parent="1" vertex="1">
          <mxGeometry y="1414" width="140" height="106" as="geometry" />
        </mxCell>
        <mxCell id="G63OA3zGbdWGWwNHvBTS-81" value="&lt;div style=&quot;&quot;&gt;&lt;span style=&quot;background-color: initial;&quot;&gt;&lt;font style=&quot;font-size: 12px;&quot;&gt;sendFriendRequest()&lt;/font&gt;&lt;/span&gt;&lt;/div&gt;&lt;div style=&quot;&quot;&gt;&lt;span style=&quot;background-color: initial;&quot;&gt;&lt;font style=&quot;font-size: 12px;&quot;&gt;acceptRequest()&lt;/font&gt;&lt;/span&gt;&lt;/div&gt;&lt;div style=&quot;&quot;&gt;&lt;span style=&quot;background-color: initial;&quot;&gt;&lt;font style=&quot;font-size: 12px;&quot;&gt;rejectRequest()&lt;/font&gt;&lt;/span&gt;&lt;/div&gt;" style="html=1;whiteSpace=wrap;align=left;" parent="1" vertex="1">
          <mxGeometry x="-340" y="1450" width="140" height="80" as="geometry" />
        </mxCell>
        <mxCell id="G63OA3zGbdWGWwNHvBTS-82" value="ListeningSessionManager" style="swimlane;fontStyle=0;childLayout=stackLayout;horizontal=1;startSize=26;fillColor=none;horizontalStack=0;resizeParent=1;resizeParentMax=0;resizeLast=0;collapsible=1;marginBottom=0;whiteSpace=wrap;html=1;" parent="1" vertex="1">
          <mxGeometry x="360" y="1426" width="160" height="104" as="geometry" />
        </mxCell>
        <mxCell id="G63OA3zGbdWGWwNHvBTS-83" value="spaceName : String" style="text;strokeColor=none;fillColor=none;align=left;verticalAlign=top;spacingLeft=4;spacingRight=4;overflow=hidden;rotatable=0;points=[[0,0.5],[1,0.5]];portConstraint=eastwest;whiteSpace=wrap;html=1;" parent="G63OA3zGbdWGWwNHvBTS-82" vertex="1">
          <mxGeometry y="26" width="160" height="26" as="geometry" />
        </mxCell>
        <mxCell id="G63OA3zGbdWGWwNHvBTS-84" value="spaceId : String" style="text;strokeColor=none;fillColor=none;align=left;verticalAlign=top;spacingLeft=4;spacingRight=4;overflow=hidden;rotatable=0;points=[[0,0.5],[1,0.5]];portConstraint=eastwest;whiteSpace=wrap;html=1;" parent="G63OA3zGbdWGWwNHvBTS-82" vertex="1">
          <mxGeometry y="52" width="160" height="26" as="geometry" />
        </mxCell>
        <mxCell id="G63OA3zGbdWGWwNHvBTS-85" value="spaceDescription : String" style="text;strokeColor=none;fillColor=none;align=left;verticalAlign=top;spacingLeft=4;spacingRight=4;overflow=hidden;rotatable=0;points=[[0,0.5],[1,0.5]];portConstraint=eastwest;whiteSpace=wrap;html=1;" parent="G63OA3zGbdWGWwNHvBTS-82" vertex="1">
          <mxGeometry y="78" width="160" height="26" as="geometry" />
        </mxCell>
        <mxCell id="G63OA3zGbdWGWwNHvBTS-86" value="1" style="endArrow=open;html=1;endSize=12;startArrow=diamondThin;startSize=14;startFill=1;edgeStyle=orthogonalEdgeStyle;align=left;verticalAlign=bottom;rounded=0;exitX=0.75;exitY=0;exitDx=0;exitDy=0;entryX=0;entryY=0.5;entryDx=0;entryDy=0;" parent="1" source="G63OA3zGbdWGWwNHvBTS-53" target="G63OA3zGbdWGWwNHvBTS-74" edge="1">
          <mxGeometry x="-1" y="3" relative="1" as="geometry">
            <mxPoint x="158.56000000000017" y="1425.9980000000003" as="sourcePoint" />
            <mxPoint x="155" y="1140" as="targetPoint" />
          </mxGeometry>
        </mxCell>
        <mxCell id="G63OA3zGbdWGWwNHvBTS-92" value="0..*" style="edgeLabel;html=1;align=center;verticalAlign=middle;resizable=0;points=[];" parent="G63OA3zGbdWGWwNHvBTS-86" vertex="1" connectable="0">
          <mxGeometry x="0.6622" relative="1" as="geometry">
            <mxPoint as="offset" />
          </mxGeometry>
        </mxCell>
        <mxCell id="G63OA3zGbdWGWwNHvBTS-88" style="edgeStyle=none;rounded=0;orthogonalLoop=1;jettySize=auto;html=1;exitX=1;exitY=0.5;exitDx=0;exitDy=0;entryX=0;entryY=0.5;entryDx=0;entryDy=0;" parent="1" source="G63OA3zGbdWGWwNHvBTS-41" target="G63OA3zGbdWGWwNHvBTS-62" edge="1">
          <mxGeometry relative="1" as="geometry" />
        </mxCell>
        <mxCell id="G63OA3zGbdWGWwNHvBTS-89" value="1..*" style="edgeLabel;html=1;align=center;verticalAlign=middle;resizable=0;points=[];" parent="G63OA3zGbdWGWwNHvBTS-88" vertex="1" connectable="0">
          <mxGeometry x="-0.8543" y="-1" relative="1" as="geometry">
            <mxPoint as="offset" />
          </mxGeometry>
        </mxCell>
        <mxCell id="G63OA3zGbdWGWwNHvBTS-90" value="0..*" style="edgeLabel;html=1;align=center;verticalAlign=middle;resizable=0;points=[];" parent="G63OA3zGbdWGWwNHvBTS-88" vertex="1" connectable="0">
          <mxGeometry x="0.8365" y="-1" relative="1" as="geometry">
            <mxPoint as="offset" />
          </mxGeometry>
        </mxCell>
        <mxCell id="YU1RnvDXgg_laJIsBbfk-1" value="updatePlayList()&lt;div style=&quot;&quot;&gt;&lt;span style=&quot;background-color: initial;&quot;&gt;createPlayList()&lt;/span&gt;&lt;/div&gt;&lt;div style=&quot;&quot;&gt;&lt;span style=&quot;background-color: initial;&quot;&gt;sharePlayList()&lt;/span&gt;&lt;/div&gt;&lt;div style=&quot;&quot;&gt;&lt;span style=&quot;background-color: initial;&quot;&gt;deletePlayList()&lt;/span&gt;&lt;/div&gt;" style="html=1;whiteSpace=wrap;align=left;" vertex="1" parent="1">
          <mxGeometry x="120" y="1101" width="140" height="79" as="geometry" />
        </mxCell>
        <mxCell id="YU1RnvDXgg_laJIsBbfk-2" value="" style="endArrow=none;html=1;rounded=0;exitX=1;exitY=0.5;exitDx=0;exitDy=0;entryX=0;entryY=0.5;entryDx=0;entryDy=0;" edge="1" parent="1" source="G63OA3zGbdWGWwNHvBTS-54" target="G63OA3zGbdWGWwNHvBTS-75">
          <mxGeometry width="50" height="50" relative="1" as="geometry">
            <mxPoint x="210" y="1310" as="sourcePoint" />
            <mxPoint x="260" y="1260" as="targetPoint" />
          </mxGeometry>
        </mxCell>
        <mxCell id="YU1RnvDXgg_laJIsBbfk-3" value="1" style="edgeLabel;html=1;align=center;verticalAlign=middle;resizable=0;points=[];" vertex="1" connectable="0" parent="YU1RnvDXgg_laJIsBbfk-2">
          <mxGeometry x="-0.8732" y="-1" relative="1" as="geometry">
            <mxPoint as="offset" />
          </mxGeometry>
        </mxCell>
        <mxCell id="YU1RnvDXgg_laJIsBbfk-5" value="1" style="edgeLabel;html=1;align=center;verticalAlign=middle;resizable=0;points=[];" vertex="1" connectable="0" parent="YU1RnvDXgg_laJIsBbfk-2">
          <mxGeometry x="0.871" y="-1" relative="1" as="geometry">
            <mxPoint as="offset" />
          </mxGeometry>
        </mxCell>
        <mxCell id="YU1RnvDXgg_laJIsBbfk-6" value="&lt;div style=&quot;&quot;&gt;&lt;span style=&quot;background-color: initial;&quot;&gt;addSong()&lt;/span&gt;&lt;/div&gt;&lt;div style=&quot;&quot;&gt;&lt;span style=&quot;background-color: initial;&quot;&gt;deleteSong()&lt;/span&gt;&lt;/div&gt;" style="html=1;whiteSpace=wrap;align=left;" vertex="1" parent="1">
          <mxGeometry x="-340" y="1133" width="140" height="67" as="geometry" />
        </mxCell>
        <mxCell id="YU1RnvDXgg_laJIsBbfk-8" value="&lt;div style=&quot;&quot;&gt;&lt;span style=&quot;background-color: initial;&quot;&gt;createSession()&lt;/span&gt;&lt;/div&gt;&lt;div style=&quot;&quot;&gt;&lt;span style=&quot;background-color: initial;&quot;&gt;joinSession()&lt;/span&gt;&lt;/div&gt;&lt;div style=&quot;&quot;&gt;&lt;span style=&quot;background-color: initial;&quot;&gt;deleteSession()&lt;/span&gt;&lt;/div&gt;&lt;div style=&quot;&quot;&gt;&lt;span style=&quot;background-color: initial;&quot;&gt;getSessions()&lt;/span&gt;&lt;/div&gt;&lt;div style=&quot;&quot;&gt;&lt;br&gt;&lt;/div&gt;" style="html=1;whiteSpace=wrap;align=left;" vertex="1" parent="1">
          <mxGeometry x="360" y="1530" width="160" height="100" as="geometry" />
        </mxCell>
        <mxCell id="YU1RnvDXgg_laJIsBbfk-13" style="edgeStyle=none;rounded=0;orthogonalLoop=1;jettySize=auto;html=1;exitX=1;exitY=0.5;exitDx=0;exitDy=0;entryX=0.25;entryY=0;entryDx=0;entryDy=0;" edge="1" parent="1" source="G63OA3zGbdWGWwNHvBTS-55" target="G63OA3zGbdWGWwNHvBTS-82">
          <mxGeometry relative="1" as="geometry">
            <mxPoint x="230" y="1379.5" as="sourcePoint" />
            <mxPoint x="550" y="1379.5" as="targetPoint" />
            <Array as="points">
              <mxPoint x="360" y="1375" />
            </Array>
          </mxGeometry>
        </mxCell>
        <mxCell id="YU1RnvDXgg_laJIsBbfk-14" value="1..*" style="edgeLabel;html=1;align=center;verticalAlign=middle;resizable=0;points=[];" vertex="1" connectable="0" parent="YU1RnvDXgg_laJIsBbfk-13">
          <mxGeometry x="-0.8543" y="-1" relative="1" as="geometry">
            <mxPoint as="offset" />
          </mxGeometry>
        </mxCell>
        <mxCell id="YU1RnvDXgg_laJIsBbfk-15" value="0..*" style="edgeLabel;html=1;align=center;verticalAlign=middle;resizable=0;points=[];" vertex="1" connectable="0" parent="YU1RnvDXgg_laJIsBbfk-13">
          <mxGeometry x="0.8365" y="-1" relative="1" as="geometry">
            <mxPoint as="offset" />
          </mxGeometry>
        </mxCell>
        <mxCell id="YU1RnvDXgg_laJIsBbfk-16" style="edgeStyle=none;rounded=0;orthogonalLoop=1;jettySize=auto;html=1;entryX=0.5;entryY=0;entryDx=0;entryDy=0;exitX=0.25;exitY=0;exitDx=0;exitDy=0;" edge="1" parent="1" source="G63OA3zGbdWGWwNHvBTS-53" target="G63OA3zGbdWGWwNHvBTS-65">
          <mxGeometry relative="1" as="geometry">
            <mxPoint x="30" y="1240" as="sourcePoint" />
            <mxPoint x="-130" y="1300" as="targetPoint" />
            <Array as="points">
              <mxPoint x="35" y="1240" />
              <mxPoint x="-270" y="1240" />
              <mxPoint x="-270" y="1270" />
            </Array>
          </mxGeometry>
        </mxCell>
        <mxCell id="YU1RnvDXgg_laJIsBbfk-18" value="0..*" style="edgeLabel;html=1;align=center;verticalAlign=middle;resizable=0;points=[];" vertex="1" connectable="0" parent="YU1RnvDXgg_laJIsBbfk-16">
          <mxGeometry x="0.8365" y="-1" relative="1" as="geometry">
            <mxPoint as="offset" />
          </mxGeometry>
        </mxCell>
      </root>
    </mxGraphModel>
  </diagram>
</mxfile>
